<?xml version="1.0" standalone="no"?><!DOCTYPE svg PUBLIC "-//W3C//DTD SVG 1.1//EN" "http://www.w3.org/Graphics/SVG/1.1/DTD/svg11.dtd"><svg t="1577856191696" class="icon" viewBox="0 0 1024 1024" version="1.1" xmlns="http://www.w3.org/2000/svg" p-id="2385" xmlns:xlink="http://www.w3.org/1999/xlink" width="128" height="128"><defs><style type="text/css"></style></defs><path d="M851.2 959.104H174.464c-28.672 0-52.096-25.216-52.096-56.32V120.576c0-31.104 23.296-56.32 52.096-56.32H851.2c28.8 0 52.096 25.216 52.096 56.32v782.336c0 31.104-23.424 56.192-52.096 56.192z" fill="#4DB222" p-id="2386"></path><path d="M747.392 650.88H276.608c-18.944 0-34.304-19.584-34.304-43.776V259.328c0-24.192 15.36-43.776 34.304-43.776h470.656c18.944 0 34.304 19.584 34.304 43.776v347.776c0 24.192-15.232 43.776-34.176 43.776z" fill="#FFFFFF" p-id="2387"></path><path d="M768.256 830.976H255.744c-7.296 0-13.312-6.016-13.312-13.312v-42.112c0-7.296 6.016-13.312 13.312-13.312h512.512c7.296 0 13.312 6.016 13.312 13.312v42.112c0 7.296-6.016 13.312-13.312 13.312z" fill="#FFFFFF" opacity=".5" p-id="2388"></path><path d="M556.544 496.896l-107.904-107.264c-0.768-1.152-0.512-2.816-1.536-3.968-5.504-5.376-12.672-7.552-19.84-7.296-7.168-0.384-14.336 1.792-19.84 7.296-1.152 1.024-0.768 2.688-1.664 3.968l-107.904 107.264c-10.24 10.24-10.24 26.88 0 37.12 10.368 10.24 27.008 10.24 37.248 0l92.032-91.52 92.16 91.52c10.24 10.24 27.008 10.24 37.248 0 10.368-10.24 10.368-26.752 0-37.12z m169.984-163.072c-0.64-0.768-0.384-1.92-1.152-2.688-1.536-1.536-3.84-1.152-5.632-2.304-1.92-1.024-3.712-1.792-5.888-2.432h-0.128c-2.304-0.64-4.736-1.536-7.296-1.536-0.512 0-0.896 0.256-1.28 0.256-0.64 0-1.152-0.384-1.92-0.256h-106.624c-15.104 0-27.52 12.16-27.52 27.264s14.72 25.6 54.912 27.264h15.36l-118.144 117.504c-10.24 10.24-10.24 26.88 0 37.12 10.368 10.24 27.008 10.24 37.248 0l120.448-119.68v46.976c0 15.232 12.288 27.52 27.52 27.52s27.52-12.288 27.52-27.52v-109.056c0-3.584-0.768-7.04-2.048-10.112-1.024-2.688-2.688-4.736-4.48-6.912-0.384-0.512-0.512-1.024-0.896-1.408z" fill="#4DB222" p-id="2389"></path></svg>